<svg width="16" height="16" viewBox="0 0 16 16" fill="none" xmlns="http://www.w3.org/2000/svg">
<path fill-rule="evenodd" clip-rule="evenodd" d="M8.50024 1C9.78581 1 11.0425 1.38123 12.1114 2.09546C13.1804 2.80969 14.0135 3.82483 14.5055 5.01257C14.8975 5.95898 15.0589 6.98108 14.9814 7.99524C14.8965 9.10645 14.527 10.1801 13.9048 11.1112C13.1906 12.1802 12.1754 13.0133 10.9877 13.5052C9.79997 13.9972 8.49304 14.126 7.23216 13.8751C5.97128 13.6243 4.81309 13.0052 3.90405 12.0962C2.99501 11.1871 2.37594 10.0289 2.12514 8.76807C1.87434 7.5072 2.00307 6.20032 2.49502 5.01257C2.987 3.82483 3.82011 2.80969 4.88904 2.09546C5.95796 1.38123 7.21467 1 8.50024 1ZM13.3942 5C12.7529 3.75281 11.6615 2.79626 10.3414 2.32373C10.7848 3.16357 11.1062 4.0647 11.2942 5H13.3942ZM13.9768 7.99524C13.9921 7.83081 13.9999 7.66553 14.0002 7.5C13.9992 6.99255 13.9275 6.48767 13.7872 6H11.4452C11.4772 6.33105 11.5002 6.66406 11.5002 7C11.5 7.12598 11.4973 7.25195 11.4923 7.37769C11.492 7.38623 11.4917 7.39417 11.4913 7.40271C11.4837 7.58289 11.4711 7.76331 11.4538 7.94263C11.4195 8.29749 11.3663 8.65039 11.2942 9H13.7872C13.8818 8.67139 13.9452 8.33496 13.9768 7.99524ZM10.4411 7.99524C10.443 7.97815 10.4449 7.96106 10.4468 7.94397C10.4811 7.63074 10.499 7.31567 10.5002 7C10.4936 6.66553 10.4682 6.33167 10.4242 6H6.57625C6.53232 6.33167 6.50694 6.66553 6.50024 7C6.50299 7.67334 6.58114 8.34412 6.73324 9H10.2672C10.3441 8.66833 10.4021 8.33289 10.4411 7.99524ZM10.2492 5C10.1609 4.60352 10.0467 4.21399 9.90622 3.83447C9.67142 3.2019 9.36575 2.59644 8.99425 2.03003C8.83024 2.01599 8.66624 2 8.50024 2C8.39575 2 8.29207 2.00635 8.18867 2.01453C8.12779 2.01929 8.06701 2.02478 8.00624 2.03003L8.00024 2.03918C7.40912 2.94299 6.98598 3.9458 6.75125 5H10.2492ZM5.70625 5C5.89804 4.0647 6.22337 3.16174 6.67224 2.31897C5.34624 2.78979 4.24971 3.74866 3.60625 5H5.70625ZM3.21324 6C3.07294 6.48767 3.00125 6.99255 3.00024 7.5C3.00125 8.00745 3.07294 8.51233 3.21324 9H5.70625C5.57068 8.34192 5.50166 7.67188 5.50024 7C5.50024 6.66406 5.52325 6.33105 5.55525 6H3.21324ZM5.96725 10H3.60725C3.98526 10.7384 4.52496 11.382 5.18619 11.8829C5.84739 12.3838 6.6131 12.729 7.42625 12.8931C6.78622 12.0142 6.29344 11.0371 5.96725 10ZM8.50024 12.644C9.13968 11.8531 9.63951 10.959 9.97824 10H7.02225C7.36099 10.959 7.86082 11.8531 8.50024 12.644ZM11.0332 10C10.707 11.0371 10.2143 12.0142 9.57425 12.8931C10.3874 12.729 11.1531 12.3838 11.8143 11.8829C12.4755 11.382 13.0152 10.7384 13.3932 10H11.0332Z" fill="#424242"/>
</svg>
