<svg width="16" height="16" viewBox="0 0 16 16" fill="none" xmlns="http://www.w3.org/2000/svg">
<path fill-rule="evenodd" clip-rule="evenodd" d="M1.50024 14H15.0002V13H2.00024V0H1.00024V13.5L1.50024 14ZM3.00024 11.5V3.5L3.50024 3H5.50024L6.00024 3.5V11.5L5.50024 12H3.50024L3.00024 11.5ZM5.00024 11V4H4.00024V11H5.00024ZM11.0002 1.5V11.5L11.5002 12H13.5002L14.0002 11.5V1.5L13.5002 1H11.5002L11.0002 1.5ZM13.0002 2V11H12.0002V2H13.0002ZM7.00024 11.5V5.5L7.50024 5H9.50024L10.0002 5.5V11.5L9.50024 12H7.50024L7.00024 11.5ZM9.00024 11V6H8.00024V11H9.00024Z" fill="#424242"/>
</svg>
