<svg width="16" height="16" viewBox="0 0 16 16" fill="none" xmlns="http://www.w3.org/2000/svg">
<path fill-rule="evenodd" clip-rule="evenodd" d="M3.00024 1H14.0002L15.0002 2V7.30005C14.6855 7.14615 14.3477 7.04476 14.0002 7V2H9.00024V12.88L7.88025 14H3.00024L2.00024 13V2L3.00024 1ZM3.00024 13H8.00024V2H3.00024V13ZM13.3789 8.00202C12.96 8.01773 12.5515 8.13726 12.1902 8.34992H12.1602C11.8707 8.52448 11.6195 8.75571 11.4216 9.02973C11.2237 9.30375 11.0833 9.61487 11.0085 9.94453C10.9338 10.2742 10.9264 10.6156 10.9868 10.9482C11.0473 11.2808 11.1743 11.5977 11.3602 11.88L9.00024 14.2299L9.71021 14.9399L12.0602 12.5799C12.3853 12.8004 12.7597 12.9378 13.1503 12.9799C13.5352 13.0271 13.9257 12.9825 14.2902 12.8499C14.6689 12.7225 15.0117 12.5065 15.2902 12.2199C15.5602 11.9374 15.7591 11.5946 15.8702 11.2199C15.9783 10.8465 16.0021 10.4537 15.9402 10.0699C15.8707 9.68581 15.7133 9.32307 15.4802 9.00996C15.2473 8.6929 14.9422 8.43582 14.5902 8.25996C14.214 8.07495 13.7978 7.98631 13.3789 8.00202ZM13.6199 11.9943C13.2749 12.0285 12.9288 11.9422 12.6403 11.7499C12.3918 11.5822 12.1972 11.3459 12.0802 11.0699C11.9692 10.7974 11.9414 10.4982 12.0002 10.2099C12.0567 9.91792 12.1993 9.64957 12.4095 9.43928C12.6198 9.22898 12.8882 9.08644 13.1802 9.02998C13.4685 8.97115 13.7677 8.99894 14.0402 9.10993C14.3162 9.2269 14.5525 9.42149 14.7202 9.66999C14.9124 9.95851 14.9988 10.3046 14.9646 10.6496C14.9304 10.9946 14.7777 11.3172 14.5326 11.5623C14.2874 11.8075 13.9649 11.9601 13.6199 11.9943Z" fill="#424242"/>
</svg>
