<svg width="16" height="16" viewBox="0 0 16 16" fill="none" xmlns="http://www.w3.org/2000/svg">
<path fill-rule="evenodd" clip-rule="evenodd" d="M3 1H14L15 2V7.30005C14.6853 7.14615 14.3475 7.04476 14 7V2H9V12.88L7.88 14H3L2 13V2L3 1ZM3 13H8V2H3V13ZM13.3787 8.00202C12.9597 8.01773 12.5512 8.13726 12.1899 8.34992H12.1599C11.8705 8.52448 11.6193 8.75571 11.4214 9.02973C11.2235 9.30375 11.083 9.61487 11.0083 9.94453C10.9336 10.2742 10.9261 10.6156 10.9866 10.9482C11.047 11.2808 11.1741 11.5977 11.36 11.88L9 14.2299L9.70996 14.9399L12.0599 12.5799C12.3851 12.8004 12.7594 12.9378 13.15 12.9799C13.535 13.0271 13.9255 12.9825 14.2899 12.8499C14.6686 12.7225 15.0115 12.5065 15.2899 12.2199C15.5599 11.9374 15.7588 11.5946 15.87 11.2199C15.978 10.8465 16.0019 10.4537 15.9399 10.0699C15.8704 9.68581 15.713 9.32307 15.48 9.00996C15.247 8.6929 14.9419 8.43582 14.59 8.25996C14.2138 8.07495 13.7976 7.98631 13.3787 8.00202ZM13.6196 11.9943C13.2746 12.0285 12.9285 11.9422 12.64 11.7499C12.3915 11.5822 12.1969 11.3459 12.08 11.0699C11.969 10.7974 11.9412 10.4982 12 10.2099C12.0565 9.91792 12.199 9.64957 12.4093 9.43928C12.6196 9.22898 12.8879 9.08644 13.1799 9.02998C13.4682 8.97115 13.7674 8.99894 14.0399 9.10993C14.316 9.2269 14.5522 9.42149 14.72 9.66999C14.9122 9.95851 14.9986 10.3046 14.9644 10.6496C14.9301 10.9946 14.7775 11.3172 14.5323 11.5623C14.2872 11.8075 13.9646 11.9601 13.6196 11.9943Z" fill="#C5C5C5"/>
</svg>
